<?xml version="1.0" encoding="UTF-8"?>
<svg version="1.1" xmlns="http://www.w3.org/2000/svg" width="300" height="152">
<path d="M0 0 C1.68222656 -0.05607422 1.68222656 -0.05607422 3.3984375 -0.11328125 C17.57119133 -0.26057315 29.01148998 6.04793064 39.1875 15.5625 C49.40691678 26.22701333 54.0569017 40.08421965 53.84521484 54.6784668 C53.66088933 59.79757511 52.90401798 64.46093707 51.5 69.375 C50.83355469 69.3028125 50.16710937 69.230625 49.48046875 69.15625 C18.47100919 66.03361911 -10.49965996 75.64087496 -36.5 92.375 C-24.08572256 95.70712862 -24.08572256 95.70712862 -11.85546875 93.81640625 C-8.9066914 91.47554284 -6.2202303 88.97574727 -3.5 86.375 C14.34012703 74.0127543 37.1282608 67.68972752 58.70703125 70.84375 C68.71399802 73.1950373 76.63296069 78.9782762 82.5 87.375 C87.79906961 97.15170289 89.12940678 107.55188433 86.8515625 118.48828125 C82.98580079 130.16816813 75.18791648 137.96034443 64.33984375 143.47265625 C29.20844598 156.79408574 -32.5708287 131.71908861 -65.6875 117.25 C-76.55689532 112.27164128 -91.84909618 105.11906307 -96.5 93.375 C-97.44253985 86.42996956 -97.13431445 80.75756079 -92.91015625 75.0390625 C-90.87076813 72.63247153 -88.86727346 70.47326512 -86.5 68.375 C-85.64921875 67.59382813 -85.64921875 67.59382813 -84.78125 66.796875 C-65.31891425 50.17903447 -36.09216136 45.10044878 -11.5625 41.375 C-10.20499634 41.15142822 -10.20499634 41.15142822 -8.82006836 40.92333984 C-3.02790754 40.11867646 0.37257738 40.49330899 5.5 43.375 C7.9375 45.5625 7.9375 45.5625 9.5 47.375 C10.221875 46.446875 10.94375 45.51875 11.6875 44.5625 C13.98430257 41.78665004 16.26885405 40.0367322 19.5 38.375 C19.00628906 37.96507812 18.51257813 37.55515625 18.00390625 37.1328125 C17.36324219 36.59398437 16.72257813 36.05515625 16.0625 35.5 C15.42441406 34.96632812 14.78632813 34.43265625 14.12890625 33.8828125 C12.5 32.375 12.5 32.375 11.5 30.375 C10.778125 31.303125 10.05625 32.23125 9.3125 33.1875 C6.27073721 37.09833787 2.98560416 39.0657671 -1.88378906 40.0793457 C-3.16479492 40.23491943 -4.44580078 40.39049316 -5.765625 40.55078125 C-7.21561945 40.73721252 -8.66556886 40.92399437 -10.11547852 41.11108398 C-11.24990891 41.25137527 -11.24990891 41.25137527 -12.40725708 41.39450073 C-43.75959167 45.31563565 -85.11764651 51.35942845 -107.5 76.375 C-108.20125 77.138125 -108.9025 77.90125 -109.625 78.6875 C-113.72960588 84.57076842 -115.15218785 89.76006207 -114.140625 96.91796875 C-110.93911245 109.19694068 -98.24003907 117.43654784 -87.9375 123.5 C-73.30693269 131.83470979 -56.48139429 138.19666261 -40.5 143.375 C-40.5 144.035 -40.5 144.695 -40.5 145.375 C-53.34834046 145.4679066 -66.19660026 145.53886985 -79.04520893 145.58224869 C-85.01211269 145.60307417 -90.97878567 145.63129982 -96.94555664 145.67675781 C-102.70977721 145.72039509 -108.47377657 145.74417497 -114.23814964 145.75450897 C-116.43126085 145.76186828 -118.62436071 145.77623895 -120.81737709 145.79792023 C-135.78134468 145.9399039 -148.55483847 145.53629053 -160.5 135.375 C-169.10407882 126.34497669 -172.89647124 116.40927888 -172.7109375 104.015625 C-171.90580851 93.93660286 -167.12169889 84.4427523 -159.75 77.5625 C-151.20079945 70.62140243 -143.05461901 68.18625107 -132.1875 68.3125 C-131.44693359 68.31701172 -130.70636719 68.32152344 -129.94335938 68.32617188 C-128.12887101 68.33787825 -126.31442466 68.35581102 -124.5 68.375 C-124.55220703 67.26705078 -124.55220703 67.26705078 -124.60546875 66.13671875 C-124.94039656 53.58490018 -121.81329104 40.45776942 -113.12890625 30.875 C-106.42229647 24.69912913 -99.20037307 20.12003749 -90.5 17.375 C-89.60474609 17.08689453 -89.60474609 17.08689453 -88.69140625 16.79296875 C-75.3097529 14.2406748 -62.8545704 17.12928192 -51.5 24.375 C-50.15613952 25.36080769 -48.81971886 26.35710025 -47.5 27.375 C-46.96632813 26.6015625 -46.43265625 25.828125 -45.8828125 25.03125 C-34.16601023 8.65205236 -20.18772796 0.24839486 0 0 Z " fill="#FEFEFE" transform="translate(189.5,-0.375)"/>
</svg>
